<svg id="visual" viewBox="0 0 900 600" width="900" height="600" xmlns="http://www.w3.org/2000/svg" xmlns:xlink="http://www.w3.org/1999/xlink" version="1.1"><g transform="translate(450 300.04999999999995)"><path d="M76.8 -119.5C99.5 -104.9 118 -83.6 129.2 -59C140.5 -34.4 144.5 -6.5 140.6 20.2C136.8 47 125.1 72.6 107.4 93C89.7 113.5 66 128.7 40 136.3C14.1 143.9 -14.1 143.9 -40 136.3C-66 128.7 -89.7 113.5 -107.4 93C-125.1 72.6 -136.8 47 -140.6 20.2C-144.5 -6.5 -140.5 -34.4 -129.2 -59C-118 -83.6 -99.5 -104.9 -76.8 -119.5C-54.1 -134.1 -27 -142.1 0 -142.1C27 -142.1 54.1 -134.1 76.8 -119.5" fill="#ffb031"></path></g></svg>