<svg id="visual" viewBox="0 0 900 600" width="900" height="600" xmlns="http://www.w3.org/2000/svg" xmlns:xlink="http://www.w3.org/1999/xlink" version="1.1"><g transform="translate(444.81817471118626 241.78915208879332)"><path d="M50.1 -64.3C75.8 -61.5 114.7 -65.9 139.1 -51.9C163.5 -38 173.3 -5.8 160.5 17C147.8 39.8 112.4 53.3 92.5 84.9C72.5 116.5 68 166.2 46.7 183.8C25.4 201.5 -12.7 187.1 -48.9 173.4C-85.2 159.7 -119.7 146.6 -138.8 121.8C-157.9 97 -161.6 60.4 -146.2 33.4C-130.8 6.4 -96.3 -10.9 -73.9 -22.8C-51.4 -34.6 -40.9 -41 -30.6 -50.8C-20.3 -60.6 -10.1 -73.8 1.1 -75.4C12.3 -77.1 24.5 -67.1 50.1 -64.3" fill="#FCAF3C"></path></g></svg>