<svg width="64" height="64" viewBox="0 0 64 64" fill="none" xmlns="http://www.w3.org/2000/svg">
<path d="M26.6666 54.8467C17.5237 57.9328 9.90469 54.8467 5.33325 45.3334" stroke="black" stroke-width="3" stroke-linecap="round" stroke-linejoin="round"/>
<path d="M22.3333 58.6667V50.0211C22.3333 48.4256 22.8237 47.039 23.6144 45.7864C24.1568 44.927 23.7853 43.7078 22.8056 43.4384C14.6905 41.2075 9 37.6206 9 25.7229C9 22.6297 10.0135 19.7215 11.795 17.1904C12.2383 16.5605 12.46 16.2456 12.5133 15.9603C12.5666 15.675 12.4739 15.3028 12.2886 14.5582C11.5343 11.5278 11.5832 8.30988 12.7153 5.40865C12.7153 5.40865 15.0545 4.64649 20.3786 7.97254C21.5942 8.73196 22.202 9.11166 22.7373 9.1966C23.2725 9.28153 23.9883 9.10361 25.4195 8.7478C27.3768 8.26124 29.3936 8.00004 31.6667 8.00004C33.9397 8.00004 35.9565 8.26124 37.9139 8.7478C39.3451 9.10361 40.0608 9.28153 40.596 9.1966C41.1315 9.11166 41.7392 8.73196 42.9547 7.97254C48.2789 4.64649 50.6181 5.40865 50.6181 5.40865C51.7501 8.30988 51.7989 11.5278 51.0448 14.5582C50.8595 15.3028 50.7667 15.675 50.82 15.9603C50.8733 16.2456 51.0949 16.5605 51.5384 17.1904C53.3197 19.7215 54.3333 22.6297 54.3333 25.7229C54.3333 37.6206 48.6429 41.2075 40.5277 43.4384C39.548 43.7078 39.1765 44.927 39.7189 45.7864C40.5096 47.039 41 48.4256 41 50.0211V58.6667" fill="black"/>
<path d="M22.3333 58.6667V50.0211C22.3333 48.4256 22.8237 47.039 23.6144 45.7864C24.1568 44.927 23.7853 43.7078 22.8056 43.4384C14.6905 41.2075 9 37.6206 9 25.7229C9 22.6297 10.0135 19.7215 11.795 17.1904C12.2383 16.5605 12.46 16.2456 12.5133 15.9603C12.5666 15.675 12.4739 15.3028 12.2886 14.5582C11.5343 11.5278 11.5832 8.30988 12.7153 5.40865C12.7153 5.40865 15.0545 4.64649 20.3786 7.97254C21.5942 8.73196 22.202 9.11166 22.7373 9.1966C23.2725 9.28153 23.9883 9.10361 25.4195 8.7478C27.3768 8.26124 29.3936 8.00004 31.6667 8.00004C33.9397 8.00004 35.9565 8.26124 37.9139 8.7478C39.3451 9.10361 40.0608 9.28153 40.596 9.1966C41.1315 9.11166 41.7392 8.73196 42.9547 7.97254C48.2789 4.64649 50.6181 5.40865 50.6181 5.40865C51.7501 8.30988 51.7989 11.5278 51.0448 14.5582C50.8595 15.3028 50.7667 15.675 50.82 15.9603C50.8733 16.2456 51.0949 16.5605 51.5384 17.1904C53.3197 19.7215 54.3333 22.6297 54.3333 25.7229C54.3333 37.6206 48.6429 41.2075 40.5277 43.4384C39.548 43.7078 39.1765 44.927 39.7189 45.7864C40.5096 47.039 41 48.4256 41 50.0211V58.6667" stroke="black" stroke-width="1.5" stroke-linecap="round" stroke-linejoin="round"/>
</svg>
