<svg width="64" height="64" viewBox="0 0 64 64" fill="none" xmlns="http://www.w3.org/2000/svg">
<path d="M11.9999 25.3334H10.6666C8.15243 25.3334 6.89536 25.3334 6.11429 26.1144C5.33325 26.8955 5.33325 28.1526 5.33325 30.6667V53.3334C5.33325 55.8475 5.33325 57.1046 6.11429 57.8856C6.89536 58.6667 8.15243 58.6667 10.6666 58.6667H11.9999C14.5141 58.6667 15.7711 58.6667 16.5522 57.8856C17.3333 57.1046 17.3333 55.8475 17.3333 53.3334V30.6667C17.3333 28.1526 17.3333 26.8955 16.5522 26.1144C15.7711 25.3334 14.5141 25.3334 11.9999 25.3334Z" fill="black" stroke="black" stroke-width="1.5"/>
<path d="M17.3333 11.3334C17.3333 14.6471 14.647 17.3334 11.3333 17.3334C8.01955 17.3334 5.33325 14.6471 5.33325 11.3334C5.33325 8.01967 8.01955 5.33337 11.3333 5.33337C14.647 5.33337 17.3333 8.01967 17.3333 11.3334Z" fill="black" stroke="black" stroke-width="1.5"/>
<path d="M32.8693 25.3334H30.6666C28.1525 25.3334 26.8954 25.3334 26.1143 26.1144C25.3333 26.8955 25.3333 28.1526 25.3333 30.6667V53.3334C25.3333 55.8475 25.3333 57.1046 26.1143 57.8856C26.8954 58.6667 28.1525 58.6667 30.6666 58.6667H31.9999C34.5141 58.6667 35.7711 58.6667 36.5522 57.8856C37.3333 57.1046 37.3333 55.8475 37.3333 53.3334L37.3335 44.0003C37.3335 39.5822 38.7415 36.0003 42.901 36.0003C44.9805 36.0003 46.6666 37.7912 46.6666 40.0003V52.0003C46.6666 54.5144 46.6666 55.7715 47.4477 56.5526C48.2285 57.3336 49.4858 57.3336 51.9999 57.3336H53.3298C55.8434 57.3336 57.1002 57.3336 57.8813 56.5528C58.6623 55.772 58.6626 54.5152 58.6631 52.0016L58.6669 37.3339C58.6669 30.7067 52.3637 25.334 46.1247 25.334C42.573 25.334 39.4045 27.075 37.3335 29.7974C37.3333 28.1171 37.3333 27.2771 36.9685 26.6534C36.7373 26.2583 36.4082 25.9295 36.0133 25.6984C35.3895 25.3334 34.5495 25.3334 32.8693 25.3334Z" fill="black" stroke="black" stroke-width="1.5" stroke-linejoin="round"/>
</svg>
