<svg width="64" height="64" viewBox="0 0 64 64" fill="none" xmlns="http://www.w3.org/2000/svg">
<path d="M12.641 38.316L17.8494 34.6176C19.3185 33.5744 20.8081 32.8752 22.5076 32.4227C24.4587 31.903 25.3333 30.8384 25.3333 28.5627C25.3333 22.7901 38.6667 22.1759 38.6667 28.5627C38.6667 30.8384 39.5413 31.903 41.4925 32.4227C43.2053 32.8787 44.6931 33.5824 46.1507 34.6176L51.3589 38.316C53.7157 39.9896 54.8125 40.7987 55.4245 42.0851C56 43.2955 56 44.7147 56 47.5531C56 52.6563 56 55.208 54.5712 56.8438C52.8405 58.8248 48.3413 58.6547 45.5779 58.6547H18.4222C15.6586 58.6547 11.2509 58.9296 9.4288 56.8438C8 55.208 8 52.6563 8 47.5531C8 44.7147 8 43.2955 8.57557 42.0851C9.18736 40.7987 10.2843 39.9896 12.641 38.316Z" fill="black"/>
<path d="M37.3334 45.3333C37.3334 48.2789 34.9457 50.6667 32.0001 50.6667C29.0545 50.6667 26.6667 48.2789 26.6667 45.3333C26.6667 42.3877 29.0545 40 32.0001 40C34.9457 40 37.3334 42.3877 37.3334 45.3333Z" fill="white" stroke="#141B34" stroke-width="1.5"/>
<path d="M18.5603 9.86058C15.0445 10.8644 12.5168 12.1096 10.2038 13.6121C6.54174 15.9909 4.97174 20.2774 5.40278 24.4137C5.58496 26.1618 6.9883 26.9976 8.61563 26.5455C9.85195 26.2019 11.0903 25.8675 12.3189 25.503C15.9121 24.4372 16.7572 23.1416 17.2566 19.4636L18.5603 9.86058ZM18.5603 9.86058C27.2495 7.37981 36.7503 7.37981 45.4397 9.86058ZM45.4397 9.86058C48.9554 10.8644 51.4831 12.1096 53.7959 13.6121C57.4581 15.9909 59.0282 20.2774 58.597 24.4137C58.4149 26.1618 57.0117 26.9976 55.3842 26.5455C54.1479 26.2019 52.9095 25.8675 51.681 25.503C48.0877 24.4372 47.2426 23.1416 46.7434 19.4636L45.4397 9.86058Z" fill="black"/>
</svg>
