<svg id="visual" viewBox="0 0 1920 500" width="1920" height="500" xmlns="http://www.w3.org/2000/svg" xmlns:xlink="http://www.w3.org/1999/xlink" version="1.1"><path d="M0 129L40 127.8C80 126.7 160 124.3 240 117.8C320 111.3 400 100.7 480 100.2C560 99.7 640 109.3 720 116.3C800 123.3 880 127.7 960 117.8C1040 108 1120 84 1200 73C1280 62 1360 64 1440 74.8C1520 85.7 1600 105.3 1680 112.7C1760 120 1840 115 1880 112.5L1920 110L1920 0L1880 0C1840 0 1760 0 1680 0C1600 0 1520 0 1440 0C1360 0 1280 0 1200 0C1120 0 1040 0 960 0C880 0 800 0 720 0C640 0 560 0 480 0C400 0 320 0 240 0C160 0 80 0 40 0L0 0Z" fill="#FCAF3C" stroke-linecap="round" stroke-linejoin="miter"></path></svg>