<svg id="visual" viewBox="0 0 900 600" width="900" height="600" xmlns="http://www.w3.org/2000/svg" xmlns:xlink="http://www.w3.org/1999/xlink" version="1.1"><path d="M0 472L13.7 469.3C27.3 466.7 54.7 461.3 82 459.8C109.3 458.3 136.7 460.7 163.8 467C191 473.3 218 483.7 245.2 495C272.3 506.3 299.7 518.7 327 508.2C354.3 497.7 381.7 464.3 409 453.8C436.3 443.3 463.7 455.7 491 467.5C518.3 479.3 545.7 490.7 573 498.7C600.3 506.7 627.7 511.3 654.8 513.8C682 516.3 709 516.7 736.2 502.7C763.3 488.7 790.7 460.3 818 445.5C845.3 430.7 872.7 429.3 886.3 428.7L900 428L900 601L886.3 601C872.7 601 845.3 601 818 601C790.7 601 763.3 601 736.2 601C709 601 682 601 654.8 601C627.7 601 600.3 601 573 601C545.7 601 518.3 601 491 601C463.7 601 436.3 601 409 601C381.7 601 354.3 601 327 601C299.7 601 272.3 601 245.2 601C218 601 191 601 163.8 601C136.7 601 109.3 601 82 601C54.7 601 27.3 601 13.7 601L0 601Z" fill="#FCAF3C" stroke-linecap="round" stroke-linejoin="miter"></path></svg>